<svg version="1.1" id="Layer_1" xmlns="http://www.w3.org/2000/svg" xmlns:xlink="http://www.w3.org/1999/xlink" x="0px" y="0px"
	 width="100%" viewBox="0 0 2048 2048" enable-background="new 0 0 2048 2048" xml:space="preserve">
<path fill="#FFFFFF" opacity="1.000000" stroke="none" 
	d="
M1870.000000,2049.000000 
	C1246.666626,2049.000000 623.833313,2049.000000 1.000000,2049.000000 
	C1.000000,1366.333374 1.000000,683.666687 1.000000,1.000000 
	C683.666687,1.000000 1366.333374,1.000000 2049.000000,1.000000 
	C2049.000000,683.666687 2049.000000,1366.333374 2049.000000,2049.000000 
	C1989.500000,2049.000000 1930.000000,2049.000000 1870.000000,2049.000000 
M532.100769,1004.611572 
	C531.977356,1005.032898 531.853943,1005.454163 531.864807,1005.836182 
	C531.864807,1005.836182 531.776184,1005.727844 531.132751,1005.897156 
	C530.783386,1006.253235 530.395752,1006.579285 530.090149,1006.969604 
	C487.982056,1060.743652 445.878418,1114.521240 403.784393,1168.306274 
	C402.421356,1170.047852 401.158051,1171.867432 399.064484,1174.717651 
	C406.107666,1175.276855 411.835052,1175.831543 417.575165,1176.170898 
	C455.131927,1178.391479 490.376221,1170.163940 521.986816,1149.922607 
	C569.949524,1119.210571 594.002136,1075.734497 587.718384,1017.815186 
	C585.612671,998.406006 579.480042,980.145264 568.000000,964.000000 
	C568.000000,964.000000 567.984253,964.011780 567.869995,963.323242 
	C562.909180,957.220703 557.948425,951.118103 553.000000,945.000000 
	C553.000000,945.000000 552.984131,945.012024 552.780945,944.379944 
	C548.854492,940.914795 544.928101,937.449707 540.999023,934.002441 
	C540.999023,934.002441 541.016541,933.997253 540.711426,933.402649 
	C530.099182,924.470520 518.389954,917.419128 505.081818,912.003723 
	C505.241547,910.875610 505.177643,909.656616 505.593567,908.632507 
	C518.248535,877.470581 530.946960,846.326355 543.652161,815.184875 
	C544.658325,812.718750 545.790161,810.304016 546.812866,807.844299 
	C547.755676,805.576904 548.630066,803.281067 549.534546,800.997803 
	C502.842529,866.651123 460.682617,934.920959 417.514343,1003.560181 
	C430.277374,1003.560181 441.564117,1003.560181 453.663971,1003.769592 
	C454.761871,1003.674866 455.859741,1003.580200 457.859039,1003.765930 
	C476.875214,1003.423889 495.891357,1003.081848 515.842651,1002.910522 
	C521.434326,1002.961487 527.026001,1003.012451 532.524353,1003.599487 
	C532.547180,1003.780640 532.570007,1003.961792 532.100769,1004.611572 
M872.164734,1103.801270 
	C872.811523,1104.015015 873.458252,1104.228760 874.330933,1104.749878 
	C874.330933,1104.749878 874.712402,1104.748291 875.270081,1105.101562 
	C885.753662,1108.881592 896.306519,1109.636963 907.747009,1105.809204 
	C908.188904,1105.543335 908.630859,1105.277588 909.210022,1105.170044 
	C909.210022,1105.170044 909.452332,1104.913574 910.157776,1104.880615 
	C910.771118,1104.538330 911.384460,1104.196045 912.647034,1103.804565 
	C913.897400,1102.991455 915.147766,1102.178345 917.025269,1101.146973 
	C918.493347,1099.812866 919.961487,1098.478760 921.809448,1097.073608 
	C922.058533,1096.924927 922.170593,1096.706055 922.723572,1096.126465 
	C923.445251,1095.084717 924.166870,1094.042847 925.177124,1092.842651 
	C925.177124,1092.842651 925.185486,1092.513672 925.822998,1091.998169 
	C926.345398,1091.281738 926.867737,1090.565430 928.256470,1088.660889 
	C928.627380,1095.087891 928.916382,1100.096558 929.195679,1104.935791 
	C938.872009,1104.935791 948.154846,1104.935791 957.341187,1104.935791 
	C957.341187,1067.453125 957.341187,1030.234619 957.341187,992.808105 
	C946.434448,992.808105 935.899780,992.808105 925.125854,992.808105 
	C925.125854,1012.786865 925.040161,1032.418945 925.168579,1052.049561 
	C925.218811,1059.724609 923.447510,1066.721313 918.513062,1073.159424 
	C918.215942,1073.355347 918.042847,1073.629639 917.378967,1074.179321 
	C916.732056,1074.733154 916.085205,1075.286987 915.141296,1075.816162 
	C915.141296,1075.816162 915.001587,1076.079468 914.288025,1076.189453 
	C907.619507,1080.338745 900.217102,1078.618164 893.045349,1078.932251 
	C893.045349,1078.932251 893.133789,1078.919800 892.953735,1078.359131 
	C892.637756,1078.263062 892.321838,1078.166870 891.580933,1077.970581 
	C891.580933,1077.970581 891.145203,1077.942505 890.952454,1077.389893 
	C890.637024,1077.282837 890.321594,1077.175903 889.596802,1076.953613 
	C889.596802,1076.953613 889.171814,1076.937988 888.977234,1076.425171 
	C888.673218,1076.239380 888.369141,1076.053711 888.033630,1075.957886 
	C888.033630,1075.957886 888.119202,1075.916138 887.934021,1075.303833 
	C886.987244,1074.491089 886.040466,1073.678345 885.028809,1072.964844 
	C885.028809,1072.964844 885.132141,1072.906616 884.916748,1072.251465 
	C884.001160,1070.811279 883.085571,1069.370972 882.112915,1067.212402 
	C881.768311,1059.770874 881.254150,1052.332642 881.117432,1044.887207 
	C880.891968,1032.613403 880.910461,1020.335266 880.995422,1007.142334 
	C880.931763,1003.421326 880.868103,999.700256 880.987549,995.421997 
	C881.335999,990.512207 877.917053,993.231934 875.201111,992.751465 
	C874.138123,992.824524 873.075073,992.897522 871.231873,992.758423 
	C864.942444,992.727722 858.650452,992.792725 852.364868,992.620728 
	C849.738342,992.548950 848.550964,993.251770 849.188293,996.869385 
	C849.252441,999.247498 849.316589,1001.625610 849.182312,1004.920959 
	C849.259644,1011.612488 849.336975,1018.304077 849.205505,1025.734253 
	C849.279419,1026.491089 849.353333,1027.248047 849.224731,1028.921265 
	C849.541199,1042.267578 849.857666,1055.614014 850.052185,1069.669922 
	C850.155884,1070.134033 850.259583,1070.598145 850.294983,1071.851685 
	C851.841125,1080.034790 853.728760,1088.071655 860.059387,1094.841187 
	C860.934570,1095.599854 861.809753,1096.358521 862.983826,1097.707642 
	C864.233826,1098.592896 865.483826,1099.478149 866.871704,1100.154297 
	C866.871704,1100.154297 866.684998,1100.321289 867.019409,1100.860962 
	C867.950256,1101.343750 868.881104,1101.826660 869.857544,1102.182251 
	C869.857544,1102.182251 869.742004,1102.252319 870.079102,1102.764160 
	C870.654663,1102.958862 871.230225,1103.153564 871.839111,1103.227417 
	C871.839111,1103.227417 871.725830,1103.281128 872.164734,1103.801270 
M368.157990,1137.539307 
	C355.731476,1139.455078 343.304993,1141.370972 330.878479,1143.286743 
	C330.739105,1143.858521 330.599731,1144.430176 330.460327,1145.001831 
	C340.604340,1150.463745 350.748322,1155.925537 360.665314,1162.024902 
	C350.260834,1190.960205 339.856354,1219.895508 329.288879,1249.284180 
	C329.960052,1248.642090 330.363556,1248.386841 330.589355,1248.021729 
	C357.121765,1205.114502 383.897980,1162.355103 410.049652,1119.217041 
	C422.645142,1098.440186 434.107178,1076.974243 445.976624,1055.760986 
	C448.596497,1051.078857 447.946228,1050.026123 442.985779,1050.025635 
	C406.330109,1050.022339 369.674408,1050.057983 333.028992,1049.365112 
	C334.526581,1047.196655 335.863281,1044.893677 337.547699,1042.881592 
	C348.867096,1029.360229 360.234070,1015.878296 371.634766,1002.425293 
	C400.889648,967.903625 430.157928,933.393372 459.451996,898.905029 
	C464.558075,892.893555 469.815826,887.010925 475.288483,880.742371 
	C472.549072,879.161377 470.605896,877.878723 468.530731,876.866760 
	C442.011719,863.934998 414.073395,859.075562 384.697906,861.834534 
	C343.888611,865.667358 308.422089,880.691406 280.370331,911.276428 
	C256.598541,937.194946 244.548233,967.548767 245.810257,1003.014038 
	C246.946014,1034.931396 259.797913,1061.880127 280.386292,1085.491211 
	C283.465729,1089.022827 283.692566,1091.684814 282.234711,1095.593384 
	C274.503479,1116.321045 266.905060,1137.098145 259.302185,1157.873413 
	C258.656067,1159.638916 258.315247,1161.516235 257.634430,1164.091187 
	C259.627075,1163.319824 260.722565,1162.994019 261.729919,1162.491455 
	C288.227478,1149.271484 314.687286,1135.974976 341.256470,1122.900757 
	C343.539703,1121.777222 346.592255,1121.586060 349.193909,1121.857666 
	C357.448578,1122.719238 365.658966,1124.005493 373.768494,1125.828735 
	C372.164825,1129.756714 370.561157,1133.684692 368.157990,1137.539307 
M1404.413940,1062.957275 
	C1413.630981,1044.723999 1422.848145,1026.490601 1432.065186,1008.257263 
	C1432.528442,1008.405090 1432.991699,1008.552917 1433.454956,1008.700745 
	C1433.454956,1040.921753 1433.454956,1073.142944 1433.454956,1105.679199 
	C1443.135132,1105.679199 1452.289673,1105.453979 1461.424805,1105.777954 
	C1465.732910,1105.930786 1466.701172,1104.385986 1466.690796,1100.368530 
	C1466.565796,1052.376099 1466.599854,1004.383240 1466.570068,956.390503 
	C1466.568970,954.645996 1466.337524,952.901611 1466.191895,950.853699 
	C1454.814575,950.853699 1443.995483,951.032959 1433.187744,950.760498 
	C1429.178589,950.659485 1426.927734,951.860229 1425.127686,955.543030 
	C1411.965088,982.473511 1398.607056,1009.308472 1385.277466,1036.156982 
	C1384.520874,1037.680908 1383.471069,1039.059326 1382.123901,1041.192383 
	C1380.906860,1038.920410 1380.102539,1037.529175 1379.398804,1036.088623 
	C1366.169434,1009.006897 1352.979370,981.905701 1339.661255,954.867676 
	C1338.890503,953.302795 1337.125000,951.148193 1335.777832,951.115662 
	C1323.676758,950.823303 1311.565796,950.944824 1298.877075,950.944824 
	C1298.877075,953.638123 1298.877686,955.763367 1298.876953,957.888611 
	C1298.862061,999.049133 1298.863159,1040.209717 1298.816284,1081.370239 
	C1298.808472,1088.198608 1298.455200,1095.029297 1298.589844,1101.852539 
	C1298.615723,1103.167114 1300.144287,1105.555908 1301.031250,1105.580322 
	C1310.806885,1105.849976 1320.592896,1105.749756 1331.192261,1105.749756 
	C1331.192261,1072.594727 1331.192261,1040.012329 1331.192261,1007.429993 
	C1332.741943,1008.129517 1333.387939,1008.890808 1333.813477,1009.760071 
	C1343.989746,1030.547363 1354.133667,1051.350342 1364.302124,1072.141357 
	C1371.502075,1086.862671 1371.514038,1086.738525 1387.810303,1086.683105 
	C1391.565796,1086.670288 1393.564453,1085.273926 1395.062744,1082.014893 
	C1397.913574,1075.813843 1401.058716,1069.748047 1404.413940,1062.957275 
M688.935791,1086.550293 
	C703.313354,1099.840210 720.489075,1106.518677 739.797119,1108.490601 
	C742.243958,1108.740479 744.821045,1110.464600 746.790588,1112.146484 
	C753.974243,1118.281372 760.265137,1125.703979 768.093384,1130.794678 
	C788.522400,1144.079346 815.859619,1140.105957 832.331482,1126.825928 
	C827.836487,1118.880737 823.366394,1110.979492 818.783081,1102.878052 
	C804.943970,1110.684204 791.261353,1113.783447 777.990784,1101.894043 
	C783.202271,1098.860107 788.456665,1096.343872 793.118408,1093.001221 
	C829.284912,1067.068359 837.117310,1015.681335 810.818970,979.310669 
	C783.546448,941.592712 727.091492,940.506775 696.447998,963.219971 
	C657.512146,992.079529 653.673096,1051.172974 688.935791,1086.550293 
M1205.508545,1027.992798 
	C1203.175537,1030.477905 1200.842529,1032.963135 1197.519775,1036.502441 
	C1197.519775,1005.225830 1197.519775,975.374023 1197.519775,945.423218 
	C1186.507935,945.423218 1176.121582,945.423218 1165.931885,945.423218 
	C1165.931885,998.892639 1165.931885,1052.073120 1165.931885,1104.954590 
	C1176.765137,1104.954590 1187.033203,1104.954590 1197.342896,1104.954590 
	C1197.342896,1096.770264 1197.309326,1088.944580 1197.373291,1081.119629 
	C1197.385132,1079.682739 1197.289429,1077.804321 1198.099976,1076.885986 
	C1203.360596,1070.926025 1208.858154,1065.175415 1214.180420,1059.461182 
	C1223.294922,1074.062500 1232.317383,1088.406006 1241.188599,1102.842773 
	C1242.576172,1105.100952 1243.968140,1105.887573 1246.710083,1105.804321 
	C1255.363892,1105.541626 1264.031494,1105.731934 1272.693726,1105.745117 
	C1275.053589,1105.748657 1277.413452,1105.745605 1280.524170,1105.745605 
	C1272.607666,1093.625854 1265.300049,1082.320312 1257.869873,1071.096069 
	C1250.458130,1059.899902 1242.923462,1048.785278 1235.421509,1037.603271 
	C1249.436035,1022.543823 1263.205688,1007.747498 1277.789673,992.076111 
	C1264.523193,992.076111 1252.593018,992.013672 1240.665649,992.170471 
	C1239.439331,992.186646 1237.982666,993.278992 1237.050537,994.266357 
	C1226.646240,1005.286621 1216.324097,1016.384644 1205.508545,1027.992798 
M1691.648804,1108.075562 
	C1707.976562,1107.085571 1721.671997,1100.668091 1732.842773,1088.579102 
	C1726.571655,1082.996582 1720.657104,1077.731689 1714.418579,1072.178223 
	C1713.364746,1072.821045 1711.186890,1074.385620 1708.814941,1075.557495 
	C1693.790405,1082.980713 1678.813110,1084.240723 1664.371338,1074.271729 
	C1659.984009,1071.243164 1656.957153,1066.876587 1655.658569,1061.239868 
	C1656.955811,1060.928101 1657.732544,1060.588379 1658.514160,1060.576904 
	C1668.337891,1060.432251 1678.162354,1060.241577 1687.986572,1060.247070 
	C1703.634521,1060.255981 1719.283447,1060.335938 1734.929810,1060.545044 
	C1738.361328,1060.590820 1739.825195,1059.252075 1739.832031,1055.931396 
	C1739.843140,1050.437744 1740.416870,1044.894165 1739.872925,1039.459839 
	C1738.316528,1023.911682 1732.223267,1010.610413 1719.324585,1001.037781 
	C1704.890259,990.325378 1688.641724,988.181641 1671.375366,990.899475 
	C1620.299438,998.939270 1611.809692,1056.608887 1633.598267,1084.809082 
	C1647.996704,1103.444580 1668.063110,1109.263794 1691.648804,1108.075562 
M1494.213257,1026.758423 
	C1482.852783,1059.503906 1495.733276,1090.814941 1525.892578,1103.116455 
	C1551.729736,1113.655151 1587.499878,1108.024048 1599.960205,1087.937012 
	C1594.673462,1082.261963 1589.397339,1076.598389 1584.174927,1070.992432 
	C1555.746094,1091.648315 1525.554077,1077.156860 1524.127686,1060.884766 
	C1526.061646,1060.784180 1527.981812,1060.599365 1529.902222,1060.597290 
	C1551.552368,1060.573242 1573.203369,1060.688965 1594.852417,1060.533203 
	C1608.555420,1060.434570 1606.679321,1062.449219 1607.244019,1049.046875 
	C1608.073975,1029.350220 1601.611084,1012.191040 1585.194702,1000.201477 
	C1573.122192,991.384460 1559.022339,988.644714 1544.374390,990.183105 
	C1521.099121,992.627869 1503.588501,1003.587708 1494.213257,1026.758423 
M1044.184326,1028.671021 
	C1037.624756,1051.948730 1040.432129,1073.479370 1057.857422,1091.197510 
	C1073.177856,1106.775635 1092.691528,1110.470337 1113.659546,1107.367676 
	C1127.618530,1105.302124 1139.552612,1099.233276 1148.268188,1087.621826 
	C1140.696533,1081.462891 1133.291382,1075.439331 1125.923218,1069.445923 
	C1114.384521,1081.703491 1095.598389,1083.561768 1084.140503,1073.895142 
	C1071.910767,1063.577148 1069.559570,1042.058716 1079.260620,1029.369141 
	C1084.059082,1023.092590 1090.394409,1019.416138 1098.198975,1018.490112 
	C1109.295532,1017.173462 1118.744019,1020.640259 1125.955811,1028.911987 
	C1133.594360,1022.295715 1140.871216,1015.992737 1148.210449,1009.635559 
	C1147.520996,1008.789001 1147.030518,1008.116882 1146.470215,1007.509033 
	C1132.347046,992.186890 1114.220337,988.086182 1094.531860,990.196716 
	C1070.605591,992.761658 1053.238647,1004.843750 1044.184326,1028.671021 
M1780.043335,1099.484131 
	C1792.152222,1111.942261 1822.390625,1110.221680 1832.782471,1099.806763 
	C1829.757202,1092.178467 1826.731934,1084.550293 1823.625854,1076.718384 
	C1821.754517,1077.457397 1820.249512,1078.150757 1818.683472,1078.654297 
	C1807.822510,1082.146118 1801.315186,1077.729614 1801.126343,1066.306152 
	C1800.900879,1052.656982 1801.261108,1038.998169 1801.026123,1025.349243 
	C1800.952759,1021.095642 1802.382324,1019.916565 1806.447388,1020.080872 
	C1813.526489,1020.367065 1820.625244,1020.160583 1827.660278,1020.160583 
	C1827.660278,1010.969238 1827.660278,1002.210022 1827.660278,992.838867 
	C1822.208130,992.838867 1817.098267,992.859192 1811.988647,992.834839 
	C1799.538818,992.775574 1801.730713,993.532227 1801.604126,982.461670 
	C1801.527222,975.732239 1801.589844,969.001221 1801.589844,962.350342 
	C1790.200562,962.350342 1779.783569,962.350342 1768.621826,962.350342 
	C1768.621826,972.571350 1768.621826,982.480591 1768.621826,993.085205 
	C1762.174683,993.085205 1756.463379,993.085205 1750.502441,993.085205 
	C1750.502441,1002.357056 1750.502441,1010.920166 1750.502441,1020.036377 
	C1755.087891,1020.036377 1759.392090,1020.277710 1763.656128,1019.967773 
	C1767.817871,1019.665344 1769.063110,1021.166504 1769.010742,1025.315308 
	C1768.813232,1040.963623 1768.784546,1056.619507 1769.053955,1072.266357 
	C1769.227783,1082.358154 1772.093140,1091.625732 1780.043335,1099.484131 
M987.698975,1068.499512 
	C987.698975,1080.747070 987.698975,1092.994629 987.698975,1105.056152 
	C998.524841,1105.056152 1008.638489,1105.056152 1018.816589,1105.056152 
	C1018.816589,1067.571289 1018.816589,1030.335938 1018.816589,992.888977 
	C1008.373718,992.888977 998.142944,992.888977 987.699524,992.888977 
	C987.699524,1017.943176 987.699524,1042.721313 987.698975,1068.499512 
M997.749939,976.916382 
	C1009.251709,978.884460 1017.986145,974.634338 1020.983887,965.611023 
	C1024.215088,955.885071 1019.314392,945.266968 1009.996521,941.804688 
	C999.984131,938.084290 989.035645,942.672058 985.506470,952.066833 
	C981.635864,962.370605 986.215332,972.196594 997.749939,976.916382 
z"/>
<path fill="#5DC6F0" opacity="1.000000" stroke="none" 
	d="
M373.886505,1125.127563 
	C365.658966,1124.005493 357.448578,1122.719238 349.193909,1121.857666 
	C346.592255,1121.586060 343.539703,1121.777222 341.256470,1122.900757 
	C314.687286,1135.974976 288.227478,1149.271484 261.729919,1162.491455 
	C260.722565,1162.994019 259.627075,1163.319824 257.634430,1164.091187 
	C258.315247,1161.516235 258.656067,1159.638916 259.302185,1157.873413 
	C266.905060,1137.098145 274.503479,1116.321045 282.234711,1095.593384 
	C283.692566,1091.684814 283.465729,1089.022827 280.386292,1085.491211 
	C259.797913,1061.880127 246.946014,1034.931396 245.810257,1003.014038 
	C244.548233,967.548767 256.598541,937.194946 280.370331,911.276428 
	C308.422089,880.691406 343.888611,865.667358 384.697906,861.834534 
	C414.073395,859.075562 442.011719,863.934998 468.530731,876.866760 
	C470.605896,877.878723 472.549072,879.161377 475.288483,880.742371 
	C469.815826,887.010925 464.558075,892.893555 459.451996,898.905029 
	C430.157928,933.393372 400.889648,967.903625 371.634766,1002.425293 
	C360.234070,1015.878296 348.867096,1029.360229 337.547699,1042.881592 
	C335.863281,1044.893677 334.526581,1047.196655 333.254364,1049.961182 
	C334.669495,1051.200806 335.859222,1051.844238 337.582214,1052.776123 
	C332.775543,1058.649780 328.480865,1063.897827 323.854767,1069.550903 
	C346.661713,1069.550903 368.618500,1069.550903 391.509033,1069.550903 
	C389.591095,1075.952637 387.899567,1081.934326 386.005524,1087.850952 
	C382.022156,1100.294434 377.932526,1112.704102 373.886505,1125.127563 
z"/>
<path fill="#32A0CF" opacity="1.000000" stroke="none" 
	d="
M532.617676,1003.063416 
	C527.026001,1003.012451 521.434326,1002.961487 515.104492,1002.595886 
	C511.750549,1001.190063 509.218811,999.775513 506.502869,999.070251 
	C499.237274,997.183655 491.347137,997.254272 485.287170,991.753784 
	C484.555115,991.089294 483.099976,991.221558 482.132385,990.658813 
	C482.880005,988.967834 483.544678,987.628113 484.059967,986.233276 
	C492.100342,964.469238 500.150085,942.708557 508.118713,920.918213 
	C509.441101,917.302246 511.293610,916.121155 514.800232,918.353271 
	C521.080627,922.350952 527.406494,926.279175 533.769165,930.144714 
	C536.103577,931.562866 538.596130,932.720703 541.016541,933.997253 
	C541.016541,933.997253 540.999023,934.002441 541.036987,934.339478 
	C545.044617,938.121643 549.014343,941.566833 552.984131,945.012024 
	C552.984131,945.012024 553.000000,945.000000 553.008911,945.371399 
	C555.734009,949.377991 558.347839,953.096069 561.200500,956.620850 
	C563.300049,959.215393 565.711670,961.557312 567.984253,964.011780 
	C567.984253,964.011780 568.000000,964.000000 568.014404,964.383423 
	C569.122437,967.350281 570.292175,969.904541 571.296326,972.522339 
	C575.548950,983.608948 580.782104,994.450378 583.712891,1005.879883 
	C587.375549,1020.164001 587.908936,1034.903931 586.182068,1049.783203 
	C584.380615,1065.305664 580.142090,1079.949707 572.817383,1093.599487 
	C563.800537,1110.402344 552.181885,1125.210449 537.249023,1137.316284 
	C521.069641,1150.432739 502.855164,1159.612061 483.187592,1166.147583 
	C468.180298,1171.134521 452.678650,1173.551270 437.006470,1174.891846 
	C431.157043,1175.392212 425.228973,1174.972900 418.628967,1174.972900 
	C419.413300,1173.109985 419.633118,1172.165161 420.148071,1171.425781 
	C439.397827,1143.791870 458.881073,1116.317871 477.886505,1088.517090 
	C494.830902,1063.731201 511.277100,1038.604004 527.861084,1013.573181 
	C529.463257,1011.154907 530.484985,1008.352112 531.776184,1005.727844 
	C531.776184,1005.727844 531.864807,1005.836182 532.078857,1005.790222 
	C532.484314,1005.244385 532.675659,1004.744507 532.885803,1004.035278 
	C532.872498,1003.547729 532.776855,1003.293579 532.617676,1003.063416 
z"/>
<path fill="#3BACDD" opacity="1.000000" stroke="none" 
	d="
M1404.247803,1063.291748 
	C1401.058716,1069.748047 1397.913574,1075.813843 1395.062744,1082.014893 
	C1393.564453,1085.273926 1391.565796,1086.670288 1387.810303,1086.683105 
	C1371.514038,1086.738525 1371.502075,1086.862671 1364.302124,1072.141357 
	C1354.133667,1051.350342 1343.989746,1030.547363 1333.813477,1009.760071 
	C1333.387939,1008.890808 1332.741943,1008.129517 1331.192261,1007.429993 
	C1331.192261,1040.012329 1331.192261,1072.594727 1331.192261,1105.749756 
	C1320.592896,1105.749756 1310.806885,1105.849976 1301.031250,1105.580322 
	C1300.144287,1105.555908 1298.615723,1103.167114 1298.589844,1101.852539 
	C1298.455200,1095.029297 1298.808472,1088.198608 1298.816284,1081.370239 
	C1298.863159,1040.209717 1298.862061,999.049133 1298.876953,957.888611 
	C1298.877686,955.763367 1298.877075,953.638123 1298.877075,950.944824 
	C1311.565796,950.944824 1323.676758,950.823303 1335.777832,951.115662 
	C1337.125000,951.148193 1338.890503,953.302795 1339.661255,954.867676 
	C1352.979370,981.905701 1366.169434,1009.006897 1379.398804,1036.088623 
	C1380.102539,1037.529175 1380.906860,1038.920410 1382.123901,1041.192383 
	C1383.471069,1039.059326 1384.520874,1037.680908 1385.277466,1036.156982 
	C1398.607056,1009.308472 1411.965088,982.473511 1425.127686,955.543030 
	C1426.927734,951.860229 1429.178589,950.659485 1433.187744,950.760498 
	C1443.995483,951.032959 1454.814575,950.853699 1466.191895,950.853699 
	C1466.337524,952.901611 1466.568970,954.645996 1466.570068,956.390503 
	C1466.599854,1004.383240 1466.565796,1052.376099 1466.690796,1100.368530 
	C1466.701172,1104.385986 1465.732910,1105.930786 1461.424805,1105.777954 
	C1452.289673,1105.453979 1443.135132,1105.679199 1433.454956,1105.679199 
	C1433.454956,1073.142944 1433.454956,1040.921753 1433.454956,1008.700745 
	C1432.991699,1008.552917 1432.528442,1008.405090 1432.065186,1008.257263 
	C1422.848145,1026.490601 1413.630981,1044.723999 1404.247803,1063.291748 
z"/>
<path fill="#15144B" opacity="1.000000" stroke="none" 
	d="
M688.676270,1086.312988 
	C653.673096,1051.172974 657.512146,992.079529 696.447998,963.219971 
	C727.091492,940.506775 783.546448,941.592712 810.818970,979.310669 
	C837.117310,1015.681335 829.284912,1067.068359 793.118408,1093.001221 
	C788.456665,1096.343872 783.202271,1098.860107 777.990784,1101.894043 
	C791.261353,1113.783447 804.943970,1110.684204 818.783081,1102.878052 
	C823.366394,1110.979492 827.836487,1118.880737 832.331482,1126.825928 
	C815.859619,1140.105957 788.522400,1144.079346 768.093384,1130.794678 
	C760.265137,1125.703979 753.974243,1118.281372 746.790588,1112.146484 
	C744.821045,1110.464600 742.243958,1108.740479 739.797119,1108.490601 
	C720.489075,1106.518677 703.313354,1099.840210 688.676270,1086.312988 
M769.611572,984.757935 
	C753.009216,976.067566 736.380066,975.769226 720.079529,985.267395 
	C702.983521,995.229187 694.124451,1017.739929 699.127197,1039.413696 
	C703.310242,1057.536133 713.769470,1071.010254 732.288757,1075.887939 
	C749.878418,1080.520874 766.302979,1076.796509 779.266724,1063.600708 
	C801.156067,1041.319580 796.420105,1002.155762 769.611572,984.757935 
z"/>
<path fill="#15134A" opacity="1.000000" stroke="none" 
	d="
M1205.744141,1027.727295 
	C1216.324097,1016.384644 1226.646240,1005.286621 1237.050537,994.266357 
	C1237.982666,993.278992 1239.439331,992.186646 1240.665649,992.170471 
	C1252.593018,992.013672 1264.523193,992.076111 1277.789673,992.076111 
	C1263.205688,1007.747498 1249.436035,1022.543823 1235.421509,1037.603271 
	C1242.923462,1048.785278 1250.458130,1059.899902 1257.869873,1071.096069 
	C1265.300049,1082.320312 1272.607666,1093.625854 1280.524170,1105.745605 
	C1277.413452,1105.745605 1275.053589,1105.748657 1272.693726,1105.745117 
	C1264.031494,1105.731934 1255.363892,1105.541626 1246.710083,1105.804321 
	C1243.968140,1105.887573 1242.576172,1105.100952 1241.188599,1102.842773 
	C1232.317383,1088.406006 1223.294922,1074.062500 1214.180420,1059.461182 
	C1208.858154,1065.175415 1203.360596,1070.926025 1198.099976,1076.885986 
	C1197.289429,1077.804321 1197.385132,1079.682739 1197.373291,1081.119629 
	C1197.309326,1088.944580 1197.342896,1096.770264 1197.342896,1104.954590 
	C1187.033203,1104.954590 1176.765137,1104.954590 1165.931885,1104.954590 
	C1165.931885,1052.073120 1165.931885,998.892639 1165.931885,945.423218 
	C1176.121582,945.423218 1186.507935,945.423218 1197.519775,945.423218 
	C1197.519775,975.374023 1197.519775,1005.225830 1197.519775,1036.502441 
	C1200.842529,1032.963135 1203.175537,1030.477905 1205.744141,1027.727295 
z"/>
<path fill="#3BACDD" opacity="1.000000" stroke="none" 
	d="
M1691.201050,1108.098633 
	C1668.063110,1109.263794 1647.996704,1103.444580 1633.598267,1084.809082 
	C1611.809692,1056.608887 1620.299438,998.939270 1671.375366,990.899475 
	C1688.641724,988.181641 1704.890259,990.325378 1719.324585,1001.037781 
	C1732.223267,1010.610413 1738.316528,1023.911682 1739.872925,1039.459839 
	C1740.416870,1044.894165 1739.843140,1050.437744 1739.832031,1055.931396 
	C1739.825195,1059.252075 1738.361328,1060.590820 1734.929810,1060.545044 
	C1719.283447,1060.335938 1703.634521,1060.255981 1687.986572,1060.247070 
	C1678.162354,1060.241577 1668.337891,1060.432251 1658.514160,1060.576904 
	C1657.732544,1060.588379 1656.955811,1060.928101 1655.658569,1061.239868 
	C1656.957153,1066.876587 1659.984009,1071.243164 1664.371338,1074.271729 
	C1678.813110,1084.240723 1693.790405,1082.980713 1708.814941,1075.557495 
	C1711.186890,1074.385620 1713.364746,1072.821045 1714.418579,1072.178223 
	C1720.657104,1077.731689 1726.571655,1082.996582 1732.842773,1088.579102 
	C1721.671997,1100.668091 1707.976562,1107.085571 1691.201050,1108.098633 
M1672.743652,1018.031555 
	C1662.344238,1022.244446 1655.585938,1030.734741 1655.638428,1039.442261 
	C1673.299316,1039.442261 1690.955322,1039.442261 1708.671631,1039.442261 
	C1706.060669,1021.476074 1692.058472,1013.037659 1672.743652,1018.031555 
z"/>
<path fill="#3BACDD" opacity="1.000000" stroke="none" 
	d="
M1494.381836,1026.407471 
	C1503.588501,1003.587708 1521.099121,992.627869 1544.374390,990.183105 
	C1559.022339,988.644714 1573.122192,991.384460 1585.194702,1000.201477 
	C1601.611084,1012.191040 1608.073975,1029.350220 1607.244019,1049.046875 
	C1606.679321,1062.449219 1608.555420,1060.434570 1594.852417,1060.533203 
	C1573.203369,1060.688965 1551.552368,1060.573242 1529.902222,1060.597290 
	C1527.981812,1060.599365 1526.061646,1060.784180 1524.127686,1060.884766 
	C1525.554077,1077.156860 1555.746094,1091.648315 1584.174927,1070.992432 
	C1589.397339,1076.598389 1594.673462,1082.261963 1599.960205,1087.937012 
	C1587.499878,1108.024048 1551.729736,1113.655151 1525.892578,1103.116455 
	C1495.733276,1090.814941 1482.852783,1059.503906 1494.381836,1026.407471 
M1526.916992,1039.890625 
	C1543.298706,1039.890625 1559.680298,1039.890625 1576.104370,1039.890625 
	C1574.892700,1026.068237 1565.776489,1017.321655 1552.654419,1016.880310 
	C1536.444824,1016.335144 1525.025146,1024.889526 1522.747559,1039.547852 
	C1523.855347,1039.662476 1524.949829,1039.775757 1526.916992,1039.890625 
z"/>
<path fill="#15134E" opacity="1.000000" stroke="none" 
	d="
M874.712402,1104.748291 
	C874.712402,1104.748291 874.330933,1104.749878 874.047119,1104.263672 
	C873.084106,1103.612061 872.404968,1103.446655 871.725830,1103.281128 
	C871.725830,1103.281128 871.839111,1103.227417 871.722046,1102.963623 
	C870.983948,1102.550659 870.362976,1102.401489 869.742004,1102.252319 
	C869.742004,1102.252319 869.857544,1102.182251 869.766235,1101.891724 
	C868.678284,1101.174561 867.681641,1100.747925 866.684998,1100.321289 
	C866.684998,1100.321289 866.871704,1100.154297 866.768066,1099.898193 
	C865.337891,1098.800537 864.011414,1097.958862 862.684937,1097.117188 
	C861.809753,1096.358521 860.934570,1095.599854 859.979248,1094.174072 
	C857.259216,1086.337646 854.619385,1079.168091 851.988403,1071.623535 
	C851.995422,1070.497803 851.993591,1069.747314 851.984985,1068.573730 
	C851.652954,1065.212280 851.080505,1062.276489 851.047058,1059.334595 
	C850.928467,1048.891602 850.993835,1038.446533 850.994507,1027.626709 
	C850.996155,1026.500000 850.992859,1025.748779 850.993591,1024.529297 
	C850.990295,1017.375549 850.982910,1010.690247 850.985596,1003.560181 
	C850.984619,1000.742004 850.973633,998.368591 851.227905,995.715332 
	C858.328735,995.289612 865.164368,995.143555 872.351074,994.996277 
	C873.802917,994.659851 874.903809,994.324585 876.297607,994.118286 
	C877.390442,994.509338 878.190369,994.771545 878.992554,995.500244 
	C878.665161,1012.589478 878.275330,1029.211548 878.096497,1045.835815 
	C878.078003,1047.550415 879.317688,1049.278442 879.981079,1051.465210 
	C880.330566,1057.285156 880.672607,1062.640137 881.013184,1068.365234 
	C882.385193,1070.125732 883.758667,1071.516113 885.132141,1072.906616 
	C885.132141,1072.906616 885.028809,1072.964844 885.064697,1073.272461 
	C886.106812,1074.358643 887.112976,1075.137451 888.119202,1075.916138 
	C888.119202,1075.916138 888.033630,1075.957886 888.152466,1076.164551 
	C888.571472,1076.560181 888.871643,1076.749023 889.171814,1076.937988 
	C889.171814,1076.937988 889.596802,1076.953613 889.932983,1077.223877 
	C890.507996,1077.747559 890.799988,1077.896973 891.145203,1077.942505 
	C891.145203,1077.942505 891.580933,1077.970581 891.922424,1078.230957 
	C892.500427,1078.742676 892.790344,1078.885498 893.133789,1078.919800 
	C893.133789,1078.919800 893.045349,1078.932251 893.250244,1079.222900 
	C898.100830,1079.789185 902.803223,1080.608521 907.370544,1080.132202 
	C910.026245,1079.855225 912.465149,1077.499756 915.001587,1076.079468 
	C915.001587,1076.079468 915.141296,1075.816162 915.662537,1075.843994 
	C916.787109,1075.241943 917.390442,1074.612183 917.993774,1073.982300 
	C918.042847,1073.629639 918.215942,1073.355347 919.143311,1073.077759 
	C921.057312,1072.207031 923.208862,1071.641968 923.479858,1070.591675 
	C924.914612,1065.030396 926.718750,1059.366211 926.847351,1053.702515 
	C927.262878,1035.393555 927.095154,1017.068542 926.924988,998.751831 
	C926.890564,995.043030 927.935425,993.637268 931.714539,993.951660 
	C937.648621,994.445312 943.754333,995.534607 949.517883,994.638489 
	C954.842346,993.810669 955.085388,995.823120 955.033813,999.756897 
	C954.923279,1008.189941 954.878540,1016.627625 955.034790,1025.059204 
	C955.185242,1033.177734 955.818787,1041.289307 955.892334,1049.407104 
	C956.038330,1065.514893 955.940796,1081.624634 955.955505,1097.733643 
	C955.957642,1100.071777 956.401489,1102.846191 952.952332,1102.921265 
	C945.842285,1103.076416 938.726501,1102.968018 931.176758,1102.968018 
	C930.745605,1098.843628 930.293579,1095.264893 930.021179,1091.672485 
	C929.812683,1088.922852 928.993530,1087.410767 925.644165,1089.068848 
	C924.855591,1090.413208 924.425354,1091.696777 923.684143,1093.148926 
	C922.964050,1094.350708 922.554932,1095.383911 922.145752,1096.417114 
	C922.170593,1096.706055 922.058533,1096.924927 921.220337,1097.072510 
	C919.081848,1097.712158 917.532410,1098.352905 915.664185,1099.037598 
	C914.903870,1099.722778 914.462219,1100.363892 913.848389,1101.256104 
	C913.116699,1102.289551 912.557251,1103.071655 911.997803,1103.853760 
	C911.384460,1104.196045 910.771118,1104.538330 909.737183,1104.911133 
	C909.316650,1104.941528 909.183472,1104.901978 909.099731,1104.620361 
	C908.338440,1104.224976 907.660950,1104.111206 906.585693,1104.005127 
	C896.734436,1107.321899 887.303284,1106.811768 877.831787,1104.011597 
	C876.942322,1103.748657 875.759216,1104.479004 874.712402,1104.748291 
z"/>
<path fill="#15134A" opacity="1.000000" stroke="none" 
	d="
M1044.337402,1028.305420 
	C1053.238647,1004.843750 1070.605591,992.761658 1094.531860,990.196716 
	C1114.220337,988.086182 1132.347046,992.186890 1146.470215,1007.509033 
	C1147.030518,1008.116882 1147.520996,1008.789001 1148.210449,1009.635559 
	C1140.871216,1015.992737 1133.594360,1022.295715 1125.955811,1028.911987 
	C1118.744019,1020.640259 1109.295532,1017.173462 1098.198975,1018.490112 
	C1090.394409,1019.416138 1084.059082,1023.092590 1079.260620,1029.369141 
	C1069.559570,1042.058716 1071.910767,1063.577148 1084.140503,1073.895142 
	C1095.598389,1083.561768 1114.384521,1081.703491 1125.923218,1069.445923 
	C1133.291382,1075.439331 1140.696533,1081.462891 1148.268188,1087.621826 
	C1139.552612,1099.233276 1127.618530,1105.302124 1113.659546,1107.367676 
	C1092.691528,1110.470337 1073.177856,1106.775635 1057.857422,1091.197510 
	C1040.432129,1073.479370 1037.624756,1051.948730 1044.337402,1028.305420 
z"/>
<path fill="#3EABD9" opacity="1.000000" stroke="none" 
	d="
M373.827515,1125.478149 
	C377.932526,1112.704102 382.022156,1100.294434 386.005524,1087.850952 
	C387.899567,1081.934326 389.591095,1075.952637 391.509033,1069.550903 
	C368.618500,1069.550903 346.661713,1069.550903 323.854767,1069.550903 
	C328.480865,1063.897827 332.775543,1058.649780 337.582214,1052.776123 
	C335.859222,1051.844238 334.669495,1051.200806 333.249237,1050.319336 
	C369.674408,1050.057983 406.330109,1050.022339 442.985779,1050.025635 
	C447.946228,1050.026123 448.596497,1051.078857 445.976624,1055.760986 
	C434.107178,1076.974243 422.645142,1098.440186 410.049652,1119.217041 
	C383.897980,1162.355103 357.121765,1205.114502 330.589355,1248.021729 
	C330.363556,1248.386841 329.960052,1248.642090 329.288879,1249.284180 
	C339.856354,1219.895508 350.260834,1190.960205 360.932190,1161.349243 
	C363.785248,1152.986572 366.371368,1145.299683 368.957489,1137.612671 
	C370.561157,1133.684692 372.164825,1129.756714 373.827515,1125.478149 
z"/>
<path fill="#3BACDD" opacity="1.000000" stroke="none" 
	d="
M1779.785400,1099.234375 
	C1772.093140,1091.625732 1769.227783,1082.358154 1769.053955,1072.266357 
	C1768.784546,1056.619507 1768.813232,1040.963623 1769.010742,1025.315308 
	C1769.063110,1021.166504 1767.817871,1019.665344 1763.656128,1019.967773 
	C1759.392090,1020.277710 1755.087891,1020.036377 1750.502441,1020.036377 
	C1750.502441,1010.920166 1750.502441,1002.357056 1750.502441,993.085205 
	C1756.463379,993.085205 1762.174683,993.085205 1768.621826,993.085205 
	C1768.621826,982.480591 1768.621826,972.571350 1768.621826,962.350342 
	C1779.783569,962.350342 1790.200562,962.350342 1801.589844,962.350342 
	C1801.589844,969.001221 1801.527222,975.732239 1801.604126,982.461670 
	C1801.730713,993.532227 1799.538818,992.775574 1811.988647,992.834839 
	C1817.098267,992.859192 1822.208130,992.838867 1827.660278,992.838867 
	C1827.660278,1002.210022 1827.660278,1010.969238 1827.660278,1020.160583 
	C1820.625244,1020.160583 1813.526489,1020.367065 1806.447388,1020.080872 
	C1802.382324,1019.916565 1800.952759,1021.095642 1801.026123,1025.349243 
	C1801.261108,1038.998169 1800.900879,1052.656982 1801.126343,1066.306152 
	C1801.315186,1077.729614 1807.822510,1082.146118 1818.683472,1078.654297 
	C1820.249512,1078.150757 1821.754517,1077.457397 1823.625854,1076.718384 
	C1826.731934,1084.550293 1829.757202,1092.178467 1832.783447,1099.809448 
	C1822.390625,1110.221680 1792.152222,1111.942261 1779.785400,1099.234375 
z"/>
<path fill="#3EABD9" opacity="1.000000" stroke="none" 
	d="
M481.979980,990.984497 
	C483.099976,991.221558 484.555115,991.089294 485.287170,991.753784 
	C491.347137,997.254272 499.237274,997.183655 506.502869,999.070251 
	C509.218811,999.775513 511.750549,1001.190063 514.636902,1002.510559 
	C495.891357,1003.081848 476.875214,1003.423889 457.299500,1003.323608 
	C455.283630,1002.592957 453.827301,1002.304688 452.370941,1002.016418 
	C452.530914,1002.531006 452.690887,1003.045593 452.850830,1003.560181 
	C441.564117,1003.560181 430.277374,1003.560181 417.514343,1003.560181 
	C460.682617,934.920959 502.842529,866.651123 549.534546,800.997803 
	C548.630066,803.281067 547.755676,805.576904 546.812866,807.844299 
	C545.790161,810.304016 544.658325,812.718750 543.652161,815.184875 
	C530.946960,846.326355 518.248535,877.470581 505.593567,908.632507 
	C505.177643,909.656616 505.241547,910.875610 504.813110,912.475159 
	C502.099396,918.454163 499.507416,923.901917 497.236725,929.480347 
	C490.192383,946.786560 483.236328,964.128967 476.316895,981.485596 
	C473.503265,988.543213 475.010437,990.959717 481.979980,990.984497 
z"/>
<path fill="#15134A" opacity="1.000000" stroke="none" 
	d="
M987.699219,1067.999512 
	C987.699524,1042.721313 987.699524,1017.943176 987.699524,992.888977 
	C998.142944,992.888977 1008.373718,992.888977 1018.816589,992.888977 
	C1018.816589,1030.335938 1018.816589,1067.571289 1018.816589,1105.056152 
	C1008.638489,1105.056152 998.524841,1105.056152 987.698975,1105.056152 
	C987.698975,1092.994629 987.698975,1080.747070 987.699219,1067.999512 
z"/>
<path fill="#2988B6" opacity="1.000000" stroke="none" 
	d="
M531.454468,1005.812500 
	C530.484985,1008.352112 529.463257,1011.154907 527.861084,1013.573181 
	C511.277100,1038.604004 494.830902,1063.731201 477.886505,1088.517090 
	C458.881073,1116.317871 439.397827,1143.791870 420.148071,1171.425781 
	C419.633118,1172.165161 419.413300,1173.109985 418.628967,1174.972900 
	C425.228973,1174.972900 431.157043,1175.392212 437.006470,1174.891846 
	C452.678650,1173.551270 468.180298,1171.134521 483.187592,1166.147583 
	C502.855164,1159.612061 521.069641,1150.432739 537.249023,1137.316284 
	C552.181885,1125.210449 563.800537,1110.402344 572.817383,1093.599487 
	C580.142090,1079.949707 584.380615,1065.305664 586.182068,1049.783203 
	C587.908936,1034.903931 587.375549,1020.164001 583.712891,1005.879883 
	C580.782104,994.450378 575.548950,983.608948 571.296326,972.522339 
	C570.292175,969.904541 569.122437,967.350281 568.008118,964.391357 
	C579.480042,980.145264 585.612671,998.406006 587.718384,1017.815186 
	C594.002136,1075.734497 569.949524,1119.210571 521.986816,1149.922607 
	C490.376221,1170.163940 455.131927,1178.391479 417.575165,1176.170898 
	C411.835052,1175.831543 406.107666,1175.276855 399.064484,1174.717651 
	C401.158051,1171.867432 402.421356,1170.047852 403.784393,1168.306274 
	C445.878418,1114.521240 487.982056,1060.743652 530.090149,1006.969604 
	C530.395752,1006.579285 530.783386,1006.253235 531.454468,1005.812500 
z"/>
<path fill="#15144B" opacity="1.000000" stroke="none" 
	d="
M997.367676,976.806580 
	C986.215332,972.196594 981.635864,962.370605 985.506470,952.066833 
	C989.035645,942.672058 999.984131,938.084290 1009.996521,941.804688 
	C1019.314392,945.266968 1024.215088,955.885071 1020.983887,965.611023 
	C1017.986145,974.634338 1009.251709,978.884460 997.367676,976.806580 
z"/>
<path fill="#2988B6" opacity="1.000000" stroke="none" 
	d="
M482.132385,990.658813 
	C475.010437,990.959717 473.503265,988.543213 476.316895,981.485596 
	C483.236328,964.128967 490.192383,946.786560 497.236725,929.480347 
	C499.507416,923.901917 502.099396,918.454163 504.919250,912.845825 
	C518.389954,917.419128 530.099182,924.470520 540.864014,933.699951 
	C538.596130,932.720703 536.103577,931.562866 533.769165,930.144714 
	C527.406494,926.279175 521.080627,922.350952 514.800232,918.353271 
	C511.293610,916.121155 509.441101,917.302246 508.118713,920.918213 
	C500.150085,942.708557 492.100342,964.469238 484.059967,986.233276 
	C483.544678,987.628113 482.880005,988.967834 482.132385,990.658813 
z"/>
<path fill="#15144B" opacity="1.000000" stroke="none" 
	d="
M926.002441,1089.008057 
	C928.993530,1087.410767 929.812683,1088.922852 930.021179,1091.672485 
	C930.293579,1095.264893 930.745605,1098.843628 931.176758,1102.968018 
	C938.726501,1102.968018 945.842285,1103.076416 952.952332,1102.921265 
	C956.401489,1102.846191 955.957642,1100.071777 955.955505,1097.733643 
	C955.940796,1081.624634 956.038330,1065.514893 955.892334,1049.407104 
	C955.818787,1041.289307 955.185242,1033.177734 955.034790,1025.059204 
	C954.878540,1016.627625 954.923279,1008.189941 955.033813,999.756897 
	C955.085388,995.823120 954.842346,993.810669 949.517883,994.638489 
	C943.754333,995.534607 937.648621,994.445312 931.714539,993.951660 
	C927.935425,993.637268 926.890564,995.043030 926.924988,998.751831 
	C927.095154,1017.068542 927.262878,1035.393555 926.847351,1053.702515 
	C926.718750,1059.366211 924.914612,1065.030396 923.479858,1070.591675 
	C923.208862,1071.641968 921.057312,1072.207031 919.378540,1072.995117 
	C923.447510,1066.721313 925.218811,1059.724609 925.168579,1052.049561 
	C925.040161,1032.418945 925.125854,1012.786865 925.125854,992.808105 
	C935.899780,992.808105 946.434448,992.808105 957.341187,992.808105 
	C957.341187,1030.234619 957.341187,1067.453125 957.341187,1104.935791 
	C948.154846,1104.935791 938.872009,1104.935791 929.195679,1104.935791 
	C928.916382,1100.096558 928.627380,1095.087891 928.256470,1088.660889 
	C926.867737,1090.565430 926.345398,1091.281738 925.538696,1091.895508 
	C925.503723,1090.864502 925.753113,1089.936279 926.002441,1089.008057 
z"/>
<path fill="#2988B6" opacity="1.000000" stroke="none" 
	d="
M368.557739,1137.575928 
	C366.371368,1145.299683 363.785248,1152.986572 361.045715,1161.030518 
	C350.748322,1155.925537 340.604340,1150.463745 330.460327,1145.001831 
	C330.599731,1144.430176 330.739105,1143.858521 330.878479,1143.286743 
	C343.304993,1141.370972 355.731476,1139.455078 368.557739,1137.575928 
z"/>
<path fill="#15144B" opacity="1.000000" stroke="none" 
	d="
M881.014648,1067.995117 
	C880.672607,1062.640137 880.330566,1057.285156 879.991150,1050.996826 
	C879.995850,1037.807129 879.965393,1025.550415 880.036804,1013.294495 
	C880.046997,1011.547791 880.550842,1009.804016 880.826233,1008.058899 
	C880.910461,1020.335266 880.891968,1032.613403 881.117432,1044.887207 
	C881.254150,1052.332642 881.768311,1059.770874 881.852783,1067.591309 
	C881.400085,1067.978516 881.207397,1067.986816 881.014648,1067.995117 
z"/>
<path fill="#15134A" opacity="1.000000" stroke="none" 
	d="
M880.910889,1007.600586 
	C880.550842,1009.804016 880.046997,1011.547791 880.036804,1013.294495 
	C879.965393,1025.550415 879.995850,1037.807129 879.983643,1050.531860 
	C879.317688,1049.278442 878.078003,1047.550415 878.096497,1045.835815 
	C878.275330,1029.211548 878.665161,1012.589478 879.235962,995.581909 
	C879.919617,995.457825 880.362061,995.718506 880.804504,995.979248 
	C880.868103,999.700256 880.931763,1003.421326 880.910889,1007.600586 
z"/>
<path fill="#15144B" opacity="1.000000" stroke="none" 
	d="
M850.989563,1028.002319 
	C850.993835,1038.446533 850.928467,1048.891602 851.047058,1059.334595 
	C851.080505,1062.276489 851.652954,1065.212280 851.682129,1068.573364 
	C850.982117,1068.984009 850.578125,1068.972168 850.174194,1068.960327 
	C849.857666,1055.614014 849.541199,1042.267578 849.586487,1028.460449 
	C850.295349,1028.000610 850.642456,1028.001465 850.989563,1028.002319 
z"/>
<path fill="#15144B" opacity="1.000000" stroke="none" 
	d="
M874.991211,1104.924927 
	C875.759216,1104.479004 876.942322,1103.748657 877.831787,1104.011597 
	C887.303284,1106.811768 896.734436,1107.321899 906.589111,1104.310059 
	C906.981445,1105.013916 906.972595,1105.420410 906.963745,1105.826904 
	C896.306519,1109.636963 885.753662,1108.881592 874.991211,1104.924927 
z"/>
<path fill="#15144B" opacity="1.000000" stroke="none" 
	d="
M872.000000,994.997559 
	C865.164368,995.143555 858.328735,995.289612 850.964233,995.716614 
	C850.082764,995.996948 849.730164,995.996338 849.377625,995.995667 
	C848.550964,993.251770 849.738342,992.548950 852.364868,992.620728 
	C858.650452,992.792725 864.942444,992.727722 871.617798,993.202332 
	C872.002502,994.096680 872.001282,994.547119 872.000000,994.997559 
z"/>
<path fill="#15144B" opacity="1.000000" stroke="none" 
	d="
M851.979492,1071.998657 
	C854.619385,1079.168091 857.259216,1086.337646 859.898193,1093.891235 
	C853.728760,1088.071655 851.841125,1080.034790 850.535522,1071.572510 
	C851.177185,1071.528320 851.578369,1071.763550 851.979492,1071.998657 
z"/>
<path fill="#2988B6" opacity="1.000000" stroke="none" 
	d="
M567.927124,963.667480 
	C565.711670,961.557312 563.300049,959.215393 561.200500,956.620850 
	C558.347839,953.096069 555.734009,949.377991 553.002686,945.379150 
	C557.948425,951.118103 562.909180,957.220703 567.927124,963.667480 
z"/>
<path fill="#15134A" opacity="1.000000" stroke="none" 
	d="
M914.644775,1076.134521 
	C912.465149,1077.499756 910.026245,1079.855225 907.370544,1080.132202 
	C902.803223,1080.608521 898.100830,1079.789185 893.256531,1079.178711 
	C900.217102,1078.618164 907.619507,1080.338745 914.644775,1076.134521 
z"/>
<path fill="#15144B" opacity="1.000000" stroke="none" 
	d="
M850.975586,1004.004883 
	C850.982910,1010.690247 850.990295,1017.375549 850.731323,1024.530151 
	C850.114807,1024.998169 849.764526,1024.996826 849.414307,1024.995605 
	C849.336975,1018.304077 849.259644,1011.612488 849.547485,1004.460938 
	C850.267029,1004.002258 850.621277,1004.003540 850.975586,1004.004883 
z"/>
<path fill="#2988B6" opacity="1.000000" stroke="none" 
	d="
M552.882568,944.695984 
	C549.014343,941.566833 545.044617,938.121643 541.038269,934.330505 
	C544.928101,937.449707 548.854492,940.914795 552.882568,944.695984 
z"/>
<path fill="#15144B" opacity="1.000000" stroke="none" 
	d="
M880.895996,995.700623 
	C880.362061,995.718506 879.919617,995.457825 879.233704,995.115417 
	C878.190369,994.771545 877.390442,994.509338 876.292297,993.858337 
	C875.989563,993.296265 875.985046,993.122925 875.980530,992.949585 
	C877.917053,993.231934 881.335999,990.512207 880.895996,995.700623 
z"/>
<path fill="#15134A" opacity="1.000000" stroke="none" 
	d="
M850.985596,1003.560181 
	C850.621277,1004.003540 850.267029,1004.002258 849.646729,1004.002319 
	C849.316589,1001.625610 849.252441,999.247498 849.282959,996.432495 
	C849.730164,995.996338 850.082764,995.996948 850.698975,995.996338 
	C850.973633,998.368591 850.984619,1000.742004 850.985596,1003.560181 
z"/>
<path fill="#15144B" opacity="1.000000" stroke="none" 
	d="
M915.982910,1098.993530 
	C917.532410,1098.352905 919.081848,1097.712158 921.030396,1097.108032 
	C919.961487,1098.478760 918.493347,1099.812866 916.599304,1101.152588 
	C916.173340,1101.158203 915.949951,1100.949829 915.967346,1100.624268 
	C915.984131,1099.863770 915.983582,1099.428589 915.982910,1098.993530 
z"/>
<path fill="#15134A" opacity="1.000000" stroke="none" 
	d="
M881.013184,1068.365234 
	C881.207397,1067.986816 881.400085,1067.978516 881.881348,1067.950439 
	C883.085571,1069.370972 884.001160,1070.811279 885.024414,1072.579102 
	C883.758667,1071.516113 882.385193,1070.125732 881.013184,1068.365234 
z"/>
<path fill="#32A0CF" opacity="1.000000" stroke="none" 
	d="
M453.257385,1003.664917 
	C452.690887,1003.045593 452.530914,1002.531006 452.370941,1002.016418 
	C453.827301,1002.304688 455.283630,1002.592957 456.848816,1003.183350 
	C455.859741,1003.580200 454.761871,1003.674866 453.257385,1003.664917 
z"/>
<path fill="#15144B" opacity="1.000000" stroke="none" 
	d="
M912.322388,1103.829102 
	C912.557251,1103.071655 913.116699,1102.289551 914.170044,1101.252808 
	C915.092590,1100.982056 915.521240,1100.965942 915.949951,1100.949829 
	C915.949951,1100.949829 916.173340,1101.158203 916.285706,1101.261719 
	C915.147766,1102.178345 913.897400,1102.991455 912.322388,1103.829102 
z"/>
<path fill="#15144B" opacity="1.000000" stroke="none" 
	d="
M862.834351,1097.412354 
	C864.011414,1097.958862 865.337891,1098.800537 866.699097,1100.002808 
	C865.483826,1099.478149 864.233826,1098.592896 862.834351,1097.412354 
z"/>
<path fill="#15134A" opacity="1.000000" stroke="none" 
	d="
M875.590820,992.850525 
	C875.985046,993.122925 875.989563,993.296265 875.999329,993.729492 
	C874.903809,994.324585 873.802917,994.659851 872.351074,994.996338 
	C872.001282,994.547119 872.002502,994.096680 872.007935,993.308350 
	C873.075073,992.897522 874.138123,992.824524 875.590820,992.850525 
z"/>
<path fill="#15134A" opacity="1.000000" stroke="none" 
	d="
M888.026611,1075.609985 
	C887.112976,1075.137451 886.106812,1074.358643 885.097168,1073.222778 
	C886.040466,1073.678345 886.987244,1074.491089 888.026611,1075.609985 
z"/>
<path fill="#15144B" opacity="1.000000" stroke="none" 
	d="
M922.434692,1096.271729 
	C922.554932,1095.383911 922.964050,1094.350708 923.907471,1093.156006 
	C924.441833,1092.994385 924.888550,1093.001099 924.888550,1093.001099 
	C924.166870,1094.042847 923.445251,1095.084717 922.434692,1096.271729 
z"/>
<path fill="#15134A" opacity="1.000000" stroke="none" 
	d="
M849.309937,1025.364990 
	C849.764526,1024.996826 850.114807,1024.998169 850.727295,1024.998535 
	C850.992859,1025.748779 850.996155,1026.500000 850.994507,1027.626709 
	C850.642456,1028.001465 850.295349,1028.000610 849.687744,1028.002319 
	C849.353333,1027.248047 849.279419,1026.491089 849.309937,1025.364990 
z"/>
<path fill="#15134A" opacity="1.000000" stroke="none" 
	d="
M907.355347,1105.818115 
	C906.972595,1105.420410 906.981445,1105.013916 906.986816,1104.302490 
	C907.660950,1104.111206 908.338440,1104.224976 909.073853,1104.649902 
	C909.131836,1104.961060 909.072754,1105.011719 909.072754,1105.011719 
	C908.630859,1105.277588 908.188904,1105.543335 907.355347,1105.818115 
z"/>
<path fill="#15134A" opacity="1.000000" stroke="none" 
	d="
M925.032837,1092.921875 
	C924.888550,1093.001099 924.441833,1092.994385 924.218506,1092.987427 
	C924.425354,1091.696777 924.855591,1090.413208 925.644165,1089.068848 
	C925.753113,1089.936279 925.503723,1090.864502 925.219971,1092.153198 
	C925.185486,1092.513672 925.177124,1092.842651 925.032837,1092.921875 
z"/>
<path fill="#15134A" opacity="1.000000" stroke="none" 
	d="
M851.988403,1071.623535 
	C851.578369,1071.763550 851.177185,1071.528320 850.569702,1071.177734 
	C850.259583,1070.598145 850.155884,1070.134033 850.113159,1069.315186 
	C850.578125,1068.972168 850.982117,1068.984009 851.688904,1068.996338 
	C851.993591,1069.747314 851.995422,1070.497803 851.988403,1071.623535 
z"/>
<path fill="#15144B" opacity="1.000000" stroke="none" 
	d="
M866.852173,1100.591064 
	C867.681641,1100.747925 868.678284,1101.174561 869.743408,1101.955322 
	C868.881104,1101.826660 867.950256,1101.343750 866.852173,1100.591064 
z"/>
<path fill="#15144B" opacity="1.000000" stroke="none" 
	d="
M917.686401,1074.080811 
	C917.390442,1074.612183 916.787109,1075.241943 915.811035,1075.856201 
	C916.085205,1075.286987 916.732056,1074.733154 917.686401,1074.080811 
z"/>
<path fill="#15144B" opacity="1.000000" stroke="none" 
	d="
M869.910522,1102.508301 
	C870.362976,1102.401489 870.983948,1102.550659 871.705322,1103.024048 
	C871.230225,1103.153564 870.654663,1102.958862 869.910522,1102.508301 
z"/>
<path fill="#15144B" opacity="1.000000" stroke="none" 
	d="
M871.945312,1103.541260 
	C872.404968,1103.446655 873.084106,1103.612061 873.934143,1104.110107 
	C873.458252,1104.228760 872.811523,1104.015015 871.945312,1103.541260 
z"/>
<path fill="#2988B6" opacity="1.000000" stroke="none" 
	d="
M532.866943,1004.244629 
	C532.675659,1004.744507 532.484314,1005.244385 532.011719,1005.809875 
	C531.853943,1005.454163 531.977356,1005.032898 532.414551,1004.403992 
	C532.728394,1004.196411 532.866943,1004.244629 532.866943,1004.244629 
z"/>
<path fill="#15134A" opacity="1.000000" stroke="none" 
	d="
M893.043762,1078.639404 
	C892.790344,1078.885498 892.500427,1078.742676 892.134888,1078.281006 
	C892.321838,1078.166870 892.637756,1078.263062 893.043762,1078.639404 
z"/>
<path fill="#15134A" opacity="1.000000" stroke="none" 
	d="
M891.048828,1077.666260 
	C890.799988,1077.896973 890.507996,1077.747559 890.137695,1077.281494 
	C890.321594,1077.175903 890.637024,1077.282837 891.048828,1077.666260 
z"/>
<path fill="#15134A" opacity="1.000000" stroke="none" 
	d="
M889.074524,1076.681641 
	C888.871643,1076.749023 888.571472,1076.560181 888.168213,1076.119629 
	C888.369141,1076.053711 888.673218,1076.239380 889.074524,1076.681641 
z"/>
<path fill="#3EABD9" opacity="1.000000" stroke="none" 
	d="
M532.885742,1004.035278 
	C532.866943,1004.244629 532.728394,1004.196411 532.660645,1004.169678 
	C532.570007,1003.961792 532.547180,1003.780640 532.571045,1003.331421 
	C532.776855,1003.293579 532.872498,1003.547729 532.885742,1004.035278 
z"/>
<path fill="#15144B" opacity="1.000000" stroke="none" 
	d="
M909.141357,1105.090820 
	C909.072754,1105.011719 909.131836,1104.961060 909.157654,1104.931519 
	C909.183472,1104.901978 909.316650,1104.941528 909.384521,1104.927490 
	C909.452332,1104.913574 909.210022,1105.170044 909.141357,1105.090820 
z"/>
<path fill="#FFFFFF" opacity="1.000000" stroke="none" 
	d="
M769.938721,984.927368 
	C796.420105,1002.155762 801.156067,1041.319580 779.266724,1063.600708 
	C766.302979,1076.796509 749.878418,1080.520874 732.288757,1075.887939 
	C713.769470,1071.010254 703.310242,1057.536133 699.127197,1039.413696 
	C694.124451,1017.739929 702.983521,995.229187 720.079529,985.267395 
	C736.380066,975.769226 753.009216,976.067566 769.938721,984.927368 
z"/>
<path fill="#FFFFFF" opacity="1.000000" stroke="none" 
	d="
M1673.131104,1017.926025 
	C1692.058472,1013.037659 1706.060669,1021.476074 1708.671631,1039.442261 
	C1690.955322,1039.442261 1673.299316,1039.442261 1655.638428,1039.442261 
	C1655.585938,1030.734741 1662.344238,1022.244446 1673.131104,1017.926025 
z"/>
<path fill="#FFFFFF" opacity="1.000000" stroke="none" 
	d="
M1526.480591,1039.889893 
	C1524.949829,1039.775757 1523.855347,1039.662476 1522.747559,1039.547852 
	C1525.025146,1024.889526 1536.444824,1016.335144 1552.654419,1016.880310 
	C1565.776489,1017.321655 1574.892700,1026.068237 1576.104370,1039.890625 
	C1559.680298,1039.890625 1543.298706,1039.890625 1526.480591,1039.889893 
z"/>
<path fill="#15134A" opacity="1.000000" stroke="none" 
	d="
M915.967346,1100.624268 
	C915.521240,1100.965942 915.092590,1100.982056 914.342285,1101.001465 
	C914.462219,1100.363892 914.903870,1099.722778 915.664185,1099.037598 
	C915.983582,1099.428589 915.984131,1099.863770 915.967346,1100.624268 
z"/>
</svg>